<svg width="98" height="33" viewBox="0 0 98 33" fill="none" xmlns="http://www.w3.org/2000/svg">
<g clip-path="url(#clip0_5122_12858)">
<path d="M2.63822 27.5315C2.61725 27.3454 2.53075 27.2012 2.37873 27.099C2.2267 26.9955 2.03535 26.9437 1.80469 26.9437C1.63955 26.9437 1.4967 26.9699 1.37612 27.0223C1.25555 27.0735 1.16184 27.1442 1.095 27.2347C1.02947 27.3238 0.996706 27.4253 0.996706 27.5394C0.996706 27.635 1.01899 27.7176 1.06355 27.7871C1.10942 27.8565 1.16905 27.9149 1.24244 27.962C1.31715 28.0079 1.39709 28.0466 1.48228 28.078C1.56747 28.1082 1.64938 28.1331 1.72802 28.1527L2.12119 28.255C2.24963 28.2864 2.38135 28.329 2.51634 28.3827C2.65133 28.4365 2.77649 28.5072 2.89182 28.5951C3.00716 28.6829 3.10021 28.7916 3.17098 28.9214C3.24306 29.0511 3.2791 29.2064 3.2791 29.3873C3.2791 29.6153 3.22013 29.8178 3.10217 29.9948C2.98553 30.1717 2.81581 30.3113 2.59301 30.4135C2.37152 30.5157 2.1035 30.5668 1.78896 30.5668C1.48752 30.5668 1.22671 30.519 1.00654 30.4233C0.786356 30.3277 0.614013 30.192 0.489506 30.0164C0.365 29.8395 0.296194 29.6298 0.283088 29.3873H0.892514C0.904309 29.5328 0.95149 29.654 1.03406 29.751C1.11794 29.8467 1.22475 29.9181 1.3545 29.9653C1.48556 30.0111 1.62907 30.0341 1.78503 30.0341C1.95671 30.0341 2.1094 30.0072 2.24308 29.9535C2.37807 29.8984 2.48423 29.8224 2.56155 29.7254C2.63888 29.6271 2.67754 29.5125 2.67754 29.3814C2.67754 29.2621 2.64347 29.1645 2.57531 29.0885C2.50847 29.0125 2.41739 28.9496 2.30206 28.8998C2.18803 28.85 2.05894 28.8061 1.91478 28.7681L1.43903 28.6383C1.11663 28.5505 0.861059 28.4214 0.672334 28.251C0.484919 28.0806 0.391212 27.8552 0.391212 27.5748C0.391212 27.3428 0.45412 27.1403 0.579937 26.9673C0.705754 26.7943 0.876131 26.66 1.09107 26.5643C1.30601 26.4673 1.54847 26.4188 1.81845 26.4188C2.09105 26.4188 2.33154 26.4667 2.53993 26.5623C2.74962 26.658 2.91476 26.7897 3.03533 26.9575C3.15591 27.1239 3.21882 27.3153 3.22406 27.5315H2.63822ZM10.8239 28.4869C10.8239 28.9168 10.7453 29.2864 10.588 29.5957C10.4307 29.9037 10.2151 30.1409 9.94121 30.3073C9.6686 30.4725 9.35865 30.555 9.01134 30.555C8.66272 30.555 8.35146 30.4725 8.07754 30.3073C7.80494 30.1409 7.59 29.903 7.43273 29.5937C7.27546 29.2844 7.19683 28.9155 7.19683 28.4869C7.19683 28.0571 7.27546 27.6881 7.43273 27.3801C7.59 27.0708 7.80494 26.8336 8.07754 26.6685C8.35146 26.502 8.66272 26.4188 9.01134 26.4188C9.35865 26.4188 9.6686 26.502 9.94121 26.6685C10.2151 26.8336 10.4307 27.0708 10.588 27.3801C10.7453 27.6881 10.8239 28.0571 10.8239 28.4869ZM10.2223 28.4869C10.2223 28.1593 10.1692 27.8834 10.0631 27.6593C9.95824 27.4339 9.81408 27.2635 9.6306 27.1482C9.44842 27.0315 9.24201 26.9732 9.01134 26.9732C8.77937 26.9732 8.57229 27.0315 8.39012 27.1482C8.20795 27.2635 8.06378 27.4339 7.95762 27.6593C7.85278 27.8834 7.80035 28.1593 7.80035 28.4869C7.80035 28.8146 7.85278 29.0911 7.95762 29.3165C8.06378 29.5406 8.20795 29.711 8.39012 29.8277C8.57229 29.943 8.77937 30.0007 9.01134 30.0007C9.24201 30.0007 9.44842 29.943 9.6306 29.8277C9.81408 29.711 9.95824 29.5406 10.0631 29.3165C10.1692 29.0911 10.2223 28.8146 10.2223 28.4869ZM14.9028 30.5V26.4739H17.3995V26.9968H15.5103V28.2235H17.2206V28.7445H15.5103V30.5H14.9028ZM21.2695 26.9968V26.4739H24.3855V26.9968H23.1293V30.5H22.5238V26.9968H21.2695ZM35.3781 27.5315C35.3572 27.3454 35.2707 27.2012 35.1186 27.099C34.9666 26.9955 34.7753 26.9437 34.5446 26.9437C34.3795 26.9437 34.2366 26.9699 34.116 27.0223C33.9955 27.0735 33.9018 27.1442 33.8349 27.2347C33.7694 27.3238 33.7366 27.4253 33.7366 27.5394C33.7366 27.635 33.7589 27.7176 33.8035 27.7871C33.8493 27.8565 33.909 27.9149 33.9824 27.962C34.0571 28.0079 34.137 28.0466 34.2222 28.078C34.3074 28.1082 34.3893 28.1331 34.4679 28.1527L34.8611 28.255C34.9896 28.2864 35.1213 28.329 35.2563 28.3827C35.3912 28.4365 35.5164 28.5072 35.6317 28.5951C35.7471 28.6829 35.8401 28.7916 35.9109 28.9214C35.983 29.0511 36.019 29.2064 36.019 29.3873C36.019 29.6153 35.96 29.8178 35.8421 29.9948C35.7254 30.1717 35.5557 30.3113 35.3329 30.4135C35.1114 30.5157 34.8434 30.5668 34.5289 30.5668C34.2274 30.5668 33.9666 30.519 33.7465 30.4233C33.5263 30.3277 33.3539 30.192 33.2294 30.0164C33.1049 29.8395 33.0361 29.6298 33.023 29.3873H33.6324C33.6442 29.5328 33.6914 29.654 33.774 29.751C33.8579 29.8467 33.9647 29.9181 34.0944 29.9653C34.2255 30.0111 34.369 30.0341 34.5249 30.0341C34.6966 30.0341 34.8493 30.0072 34.983 29.9535C35.118 29.8984 35.2241 29.8224 35.3015 29.7254C35.3788 29.6271 35.4175 29.5125 35.4175 29.3814C35.4175 29.2621 35.3834 29.1645 35.3152 29.0885C35.2484 29.0125 35.1573 28.9496 35.042 28.8998C34.928 28.85 34.7989 28.8061 34.6547 28.7681L34.1789 28.6383C33.8565 28.5505 33.601 28.4214 33.4123 28.251C33.2248 28.0806 33.1311 27.8552 33.1311 27.5748C33.1311 27.3428 33.194 27.1403 33.3199 26.9673C33.4457 26.7943 33.616 26.66 33.831 26.5643C34.0459 26.4673 34.2884 26.4188 34.5584 26.4188C34.831 26.4188 35.0715 26.4667 35.2798 26.5623C35.4895 26.658 35.6547 26.7897 35.7753 26.9575C35.8958 27.1239 35.9587 27.3153 35.964 27.5315H35.3781ZM40.0665 30.5V26.4739H42.5907V26.9968H40.6739V28.2235H42.459V28.7445H40.6739V29.9771H42.6143V30.5H40.0665ZM46.7237 30.5V26.4739H48.1588C48.4707 26.4739 48.7295 26.5276 48.9353 26.6351C49.1424 26.7425 49.297 26.8913 49.3993 27.0813C49.5015 27.27 49.5526 27.4883 49.5526 27.736C49.5526 27.9824 49.5008 28.1993 49.3973 28.3867C49.2951 28.5728 49.1404 28.7176 48.9333 28.8211C48.7276 28.9247 48.4687 28.9764 48.1568 28.9764H47.0697V28.4535H48.1018C48.2984 28.4535 48.4582 28.4253 48.5814 28.369C48.7059 28.3126 48.797 28.2307 48.8547 28.1232C48.9124 28.0158 48.9412 27.8867 48.9412 27.736C48.9412 27.5839 48.9117 27.4522 48.8527 27.3408C48.7951 27.2294 48.704 27.1442 48.5795 27.0853C48.4563 27.025 48.2944 26.9948 48.0939 26.9948H47.3311V30.5H46.7237ZM48.7112 28.6835L49.7059 30.5H49.0139L48.0389 28.6835H48.7112ZM53.8679 26.4739L54.9885 29.753H55.0337L56.1542 26.4739H56.8109L55.362 30.5H54.6602L53.2113 26.4739H53.8679ZM60.7138 30.5V26.4739H63.238V26.9968H61.3213V28.2235H63.1063V28.7445H61.3213V29.9771H63.2616V30.5H60.7138ZM68.6744 30.5H67.371V26.4739H68.7157C69.1102 26.4739 69.449 26.5545 69.7321 26.7157C70.0151 26.8756 70.232 27.1056 70.3828 27.4057C70.5348 27.7045 70.6108 28.063 70.6108 28.481C70.6108 28.9004 70.5341 29.2608 70.3808 29.5623C70.2288 29.8637 70.0086 30.0957 69.7203 30.2582C69.4319 30.4194 69.0833 30.5 68.6744 30.5ZM67.9785 29.9692H68.641C68.9477 29.9692 69.2026 29.9115 69.4057 29.7962C69.6089 29.6796 69.7609 29.5112 69.8618 29.291C69.9627 29.0695 70.0132 28.7995 70.0132 28.481C70.0132 28.1652 69.9627 27.8972 69.8618 27.677C69.7622 27.4568 69.6134 27.2897 69.4155 27.1757C69.2176 27.0617 68.9719 27.0046 68.6783 27.0046H67.9785V29.9692ZM80.2627 30.5L79.1461 26.4739H79.785L80.5694 29.5918H80.6068L81.4226 26.4739H82.0556L82.8715 29.5937H82.9088L83.6912 26.4739H84.3321L83.2135 30.5H82.6021L81.7548 27.4843H81.7234L80.8761 30.5H80.2627ZM88.2076 30.5V26.4739H90.7318V26.9968H88.815V28.2235H90.6001V28.7445H88.815V29.9771H90.7554V30.5H88.2076ZM94.8648 30.5V26.4739H96.3392C96.6249 26.4739 96.8615 26.521 97.0489 26.6154C97.2363 26.7085 97.3765 26.8349 97.4696 26.9948C97.5626 27.1534 97.6091 27.3323 97.6091 27.5315C97.6091 27.6993 97.5783 27.8408 97.5167 27.9561C97.4552 28.0702 97.3726 28.1619 97.269 28.2314C97.1668 28.2995 97.0541 28.3493 96.9309 28.3808V28.4201C97.0646 28.4266 97.195 28.4699 97.3221 28.5498C97.4506 28.6285 97.5567 28.7405 97.6406 28.886C97.7245 29.0315 97.7664 29.2084 97.7664 29.4168C97.7664 29.6226 97.7179 29.8074 97.6209 29.9712C97.5253 30.1337 97.3772 30.2628 97.1767 30.3585C96.9761 30.4528 96.7199 30.5 96.408 30.5H94.8648ZM95.4722 29.979H96.349C96.64 29.979 96.8483 29.9227 96.9742 29.81C97.1 29.6973 97.1629 29.5564 97.1629 29.3873C97.1629 29.2602 97.1308 29.1435 97.0666 29.0374C97.0023 28.9312 96.9106 28.8467 96.7913 28.7838C96.6734 28.7209 96.5331 28.6894 96.3706 28.6894H95.4722V29.979ZM95.4722 28.2156H96.2861C96.4224 28.2156 96.5449 28.1894 96.6537 28.137C96.7638 28.0846 96.851 28.0112 96.9152 27.9168C96.9807 27.8211 97.0135 27.7084 97.0135 27.5787C97.0135 27.4122 96.9552 27.2727 96.8385 27.16C96.7219 27.0472 96.543 26.9909 96.3018 26.9909H95.4722V28.2156Z" fill="#140C24"/>
<path d="M44.088 0.142242C43.6306 0.136064 43.1784 0.205226 42.7595 0.355667C41.9216 0.656554 41.27 1.22247 40.7668 1.85573C38.7537 4.38878 38.1842 8.35003 37.3601 11.914C36.9481 13.696 36.521 15.3588 36.0521 16.5174C35.5832 17.676 35.0648 18.0997 35.0584 18.1017C35.0552 18.1027 35.0621 18.1446 34.799 18.024C34.5358 17.9034 34.0665 17.5811 33.4808 16.974C32.3093 15.7598 30.6888 13.457 28.6755 9.84407C28.4609 9.45906 28.1022 9.17506 27.6783 9.05454C27.2543 8.93401 26.7999 8.98683 26.4149 9.20139C26.2242 9.30762 26.0564 9.45037 25.9209 9.62147C25.7854 9.79257 25.685 9.98868 25.6253 10.1986C25.5656 10.4085 25.5479 10.6281 25.573 10.8449C25.5982 11.0617 25.6659 11.2714 25.7721 11.4621C27.8577 15.2046 29.5479 17.6846 31.0888 19.2818C31.8593 20.0804 32.5967 20.671 33.4144 21.0457C34.232 21.4204 35.194 21.5398 36.0437 21.2761C37.7433 20.7485 38.5225 19.273 39.1331 17.7642C39.7436 16.2555 40.1776 14.4828 40.5984 12.6628C41.44 9.02277 42.4228 5.11403 43.3688 3.92366C43.6053 3.62607 43.7814 3.52026 43.8829 3.48382C43.9844 3.44738 44.0646 3.42014 44.3708 3.52505C44.983 3.73487 46.3321 4.72238 48.0639 6.95069C48.3344 7.2987 48.7321 7.52501 49.1694 7.57983C49.6067 7.63465 50.0479 7.5135 50.3959 7.24302C50.5682 7.1091 50.7125 6.94255 50.8204 6.75287C50.9284 6.5632 50.9979 6.35412 51.0251 6.13757C51.0522 5.92102 51.0365 5.70125 50.9787 5.4908C50.9209 5.28034 50.8222 5.08333 50.6883 4.91101C48.7741 2.44805 47.2089 0.984136 45.4483 0.380764C45.0082 0.229919 44.5454 0.14842 44.088 0.142242Z" fill="#A808F3"/>
<path d="M73.8824 0.00183158C73.7648 0.00518963 73.6469 0.0131934 73.5286 0.0259916C71.6362 0.230726 70.1037 1.48165 68.7591 3.19457C67.4144 4.90749 66.1863 7.19036 64.9757 9.99405L64.9689 10.0098L64.9625 10.0257C63.5349 13.5291 62.188 15.7623 61.1111 16.9025C60.0342 18.0426 59.5375 18.0944 58.951 17.939C58.3645 17.7836 57.3945 17.0416 56.3754 15.6288C55.3563 14.2159 54.2931 12.2287 53.2415 9.95517C53.0565 9.55514 52.7201 9.245 52.3065 9.09297C51.8928 8.94094 51.4356 8.95948 51.0356 9.1445C50.6356 9.32952 50.3254 9.66589 50.1734 10.0796C50.0213 10.4933 50.0398 10.9504 50.2249 11.3505C51.3222 13.723 52.445 15.8616 53.6798 17.5733C54.9144 19.285 56.2661 20.6662 58.0999 21.152C59.9336 21.6378 61.9558 20.8486 63.5273 19.1848C65.0942 17.526 66.5214 15.0011 68.0271 11.3116C69.1705 8.66358 70.3176 6.592 71.3734 5.24697C72.4293 3.90194 73.3228 3.39143 73.8861 3.3305C74.4494 3.26955 75.1211 3.47994 76.1784 4.70755C77.2357 5.93516 78.4685 8.10756 79.7255 11.2672L79.7348 11.2907L79.7449 11.3138C80.5373 13.1418 81.4314 15.1035 82.4912 16.8208C83.551 18.5381 84.7455 20.0784 86.4954 20.872C88.2454 21.6656 90.514 21.2522 92.3013 19.6556C94.0886 18.059 95.7452 15.4346 97.5584 11.3235C97.6465 11.1238 97.6943 10.9088 97.6993 10.6906C97.7042 10.4724 97.6662 10.2553 97.5873 10.0519C97.5084 9.84839 97.3901 9.66245 97.2394 9.50466C97.0886 9.34687 96.9082 9.22033 96.7085 9.13225C96.5088 9.04418 96.2938 8.99631 96.0756 8.99136C95.8574 8.98641 95.6404 9.02449 95.4369 9.10342C95.2334 9.18234 95.0475 9.30057 94.8897 9.45135C94.7319 9.60214 94.6054 9.78252 94.5173 9.9822C92.8031 13.869 91.2412 16.1458 90.0871 17.1768C88.9329 18.2079 88.5372 18.1484 87.8681 17.845C87.1991 17.5416 86.2199 16.534 85.3196 15.0752C84.4205 13.6182 83.5691 11.7784 82.7975 9.9988C81.4684 6.66505 80.1528 4.22901 78.6967 2.53843C77.3261 0.94703 75.6463 -0.0486248 73.8824 0.00183158Z" fill="#A808F3"/>
<path d="M18.612 0.142242C18.1546 0.136064 17.7024 0.205226 17.2835 0.355667C16.4456 0.656554 15.794 1.22247 15.2908 1.85573C13.2777 4.38878 12.7082 8.35003 11.8841 11.914C11.4721 13.696 11.045 15.3588 10.5761 16.5174C10.1072 17.676 9.58883 18.0997 9.58242 18.1017C9.5792 18.1027 9.58608 18.1446 9.32289 18.024C9.0597 17.9034 8.59049 17.5811 8.00475 16.974C6.83328 15.7598 5.2128 13.457 3.19948 9.84407C2.98492 9.45906 2.62621 9.17506 2.20226 9.05454C1.77831 8.93401 1.32385 8.98683 0.938852 9.20139C0.748214 9.30762 0.580359 9.45037 0.444886 9.62147C0.309413 9.79257 0.208967 9.98868 0.149283 10.1986C0.0895992 10.4085 0.071857 10.6281 0.0970488 10.8449C0.122241 11.0617 0.189882 11.2714 0.296114 11.4621C2.38166 15.2046 4.07187 17.6846 5.61282 19.2818C6.3833 20.0804 7.12071 20.671 7.93836 21.0457C8.75602 21.4204 9.71797 21.5398 10.5677 21.2761C12.2673 20.7485 13.0465 19.273 13.6571 17.7642C14.2676 16.2555 14.7016 14.4828 15.1224 12.6628C15.964 9.02277 16.9468 5.11403 17.8928 3.92366C18.1293 3.62607 18.3053 3.52026 18.4068 3.48382C18.5083 3.44738 18.5886 3.42014 18.8948 3.52505C19.507 3.73487 20.8561 4.72238 22.588 6.95069C22.8584 7.2987 23.2561 7.52501 23.6934 7.57983C24.1307 7.63465 24.5719 7.5135 24.9199 7.24302C25.2679 6.97254 25.4942 6.57489 25.549 6.13755C25.6039 5.70022 25.4827 5.25902 25.2122 4.91101C23.2981 2.44805 21.7329 0.984136 19.9723 0.380764C19.5322 0.229919 19.0694 0.14842 18.612 0.142242Z" fill="#A808F3"/>
</g>
<defs>
<clipPath id="clip0_5122_12858">
<rect width="98" height="33" fill="white"/>
</clipPath>
</defs>
</svg>
